<?xml version="1.0" standalone="no"?>
<svg xmlns="http://www.w3.org/2000/svg" viewBox="0 0 105 29" width="105" height="29"><path fill="#0e18d5" fill-rule="nonzero" d="M12.89 8.62L12.89 8.62L12.91 10.46Q12.82 12.22 12.48 13.42Q12.14 14.62 11.16 15.60L11.16 15.60Q9.53 17.23 6.41 17.23L6.41 17.23Q2.74 17.23 1.37 16.26Q0 15.29 0 12.74L0 12.74L0 0.14L6.65 0.14Q9.53 0.14 11.16 1.78L11.16 1.78Q12.48 3.10 12.72 4.99L12.72 4.99Q12.89 6.34 12.89 8.62ZM8.83 13.20Q9.29 12.65 9.42 11.68Q9.55 10.70 9.55 8.64Q9.55 6.58 9.42 5.65Q9.29 4.73 8.83 4.18L8.83 4.18Q7.97 3.12 6.34 3.12L6.34 3.12L3.34 3.12L3.34 12.58Q3.34 13.54 3.98 13.90Q4.63 14.26 6.30 14.26Q7.97 14.26 8.83 13.20L8.83 13.20ZM14.76 9.19L14.76 9.19L14.76 7.08Q14.76 3.74 16.51 1.87Q18.26 0 21.36 0Q24.46 0 26.33 1.87L26.33 1.87Q27.65 3.19 27.65 5.83L27.65 5.83L24.53 5.83Q24.53 2.98 21.48 2.98L21.48 2.98Q20.57 2.98 19.93 3.32Q19.30 3.67 18.98 4.13Q18.67 4.58 18.50 5.47Q18.34 6.36 18.31 6.96Q18.29 7.56 18.29 8.57Q18.29 9.58 18.30 9.92Q18.31 10.27 18.37 11.05Q18.43 11.83 18.56 12.17Q18.70 12.50 18.95 13.03Q19.20 13.56 19.58 13.78L19.58 13.78Q20.57 14.40 21.82 14.40L21.82 14.40Q23.90 14.40 24.77 12.62L24.77 12.62L24.77 11.47L22.70 11.47L22.70 8.69L27.62 8.69L27.62 13.85Q26.88 15.60 25.27 16.49Q23.66 17.38 21.62 17.38L21.62 17.38Q18 17.38 16.38 15.35Q14.76 13.32 14.76 9.19ZM39.74 10.61L39.74 10.61L42.84 10.61Q42.84 13.87 41.21 15.62Q39.58 17.38 36.60 17.38L36.60 17.38Q30.05 17.38 30.05 9.67L30.05 9.67L30.05 8.23Q30.05 2.16 33.41 0.62L33.41 0.62Q34.73 0 36.60 0L36.60 0Q39.34 0 41.05 1.50Q42.77 3.00 42.77 5.83L42.77 5.83L39.65 5.83Q39.38 4.42 38.71 3.70Q38.04 2.98 36.60 2.98L36.60 2.98Q34.92 2.98 34.10 4.03L34.10 4.03Q33.53 4.78 33.43 6.58L33.43 6.58Q33.38 7.15 33.38 8.14L33.38 8.14L33.38 9.62Q33.38 12.38 34.15 13.39L34.15 13.39Q34.94 14.40 36.61 14.40Q38.28 14.40 38.92 13.48Q39.55 12.55 39.74 10.61ZM56.46 1.62Q57.94 3.10 57.94 5.95Q57.94 8.81 56.46 10.28Q54.98 11.76 52.30 11.76L52.30 11.76L49.01 11.76L49.01 17.23L45.67 17.23L45.67 0.14L52.30 0.14Q54.98 0.14 56.46 1.62ZM54.60 5.95L54.60 5.95Q54.60 3.12 52.13 3.12L52.13 3.12L49.01 3.12L49.01 8.76L52.13 8.76Q53.33 8.76 53.96 8.11Q54.60 7.46 54.60 5.95Z" transform="translate(0, 5.812)"></path><line x1="66.936" y1="2%" x2="66.936" y2="98%" stroke="#0e18d5" stroke-linecap="round"></line><g fill="#e3cb17" color="#e3cb17" transform="translate(75.936 0) scale(0.29)"><svg width="100.0" height="100.0" x="0.0" y="0.0" viewBox="0 0 100 100"><path fill="currentColor" d="M31,30.979l13-7.67v-7.7L24.044,3.946L4.379,15.345L4,15.664v23.266l19.787,11.399l0.423,0.236l6.79-3.88  V30.979z M24,48.221L6,37.875V17.721l18,10.341V48.221z M6.823,16.138L24.288,6.054l17.921,10.347l-17.465,10.08l0,0L6.823,16.138z"></path><path fill="currentColor" d="M75.757,3.946L56.236,15.345L56,15.664v7.645l13,7.67v15.716l6.358,3.634l0.495,0.236L96,38.929v-23.32  L75.757,3.946z M75.259,26.481L57.794,16.401L75.715,6.054L93.18,16.138L75.259,26.481z M94,37.875L76,48.221V28.062l18-10.341  V37.875z"></path><path fill="currentColor" d="M63.684,56.481L50,64.382l-13.765-7.947l-5.928,3.449L30,60.201v23.267l19.644,11.398l0.352,0.236L70,83.468  V60.146L63.684,56.481z M49,92.444L32,82.413V61.758L49,71.81V92.444z M68,82.413L51,92.446V71.81l17-10.051V82.413z"></path><polygon fill="currentColor" points="68,32.632 68,31.551 67.245,31.03 49.937,41.059 32.732,31.023 32,31.551 32,32.631 49,42.641   49,62.66 50,63.237 51,62.66 51,42.641 "></polygon></svg></g></svg>